<?xml version="1.0" encoding="UTF-8"?>
<svg id="Layer_2" data-name="Layer 2" xmlns="http://www.w3.org/2000/svg" viewBox="0 0 457.95 440.81">
  <defs>
    <style>
      .cls-1 {
        stroke-width: 3.46px;
      }

      .cls-1, .cls-2, .cls-3, .cls-4 {
        fill: none;
        stroke: #e4cbc0;
        stroke-miterlimit: 10;
      }

      .cls-2 {
        stroke-width: 2.6px;
      }

      .cls-3 {
        stroke-width: .87px;
      }

      .cls-5 {
        opacity: .15;
      }

      .cls-4 {
        stroke-width: 4.33px;
      }

      .cls-6 {
        fill: #e4cbc0;
        stroke-width: 0px;
      }
    </style>
  </defs>
  <g id="Layer_2-2" data-name="Layer 2">
    <g class="cls-5">
      <g>
        <path class="cls-4" d="m152.73,175.78s-17.19-13.63-8.49-25.12c8.7-11.49,25.75,4.78,25.75,4.78,0,0-15.93-18.94-1.77-28.1,12.22-7.9,26.95,8.54,34.08,18.69,12.62,17.95,17.49,41.24,21.85,62.7.48,2.36.93,4.73,1.31,7.11,0,0-5.31,6.21-5.31,6.21-.13.16-8.24-4.41-8.75-4.65-7.61-3.69-15.49-6.78-23.52-9.27-5.56-1.73-11.24-3.04-16.94-4.14-5.49-1.06-11.21-1.54-16.61-3.01-6.84-1.87-15.77-2.53-20.04-8.73-2.2-3.2-2.04-10.67.6-14.15,3.14-4.12,13.71-3.65,17.84-2.31Z"/>
        <path class="cls-4" d="m181.35,167.24s31.91,13.4,42.36,50.64"/>
        <path class="cls-4" d="m190.05,191.93s26,8.88,32.47,27.34"/>
      </g>
      <g>
        <path class="cls-4" d="m301.1,175.78s17.19-13.63,8.49-25.12c-8.7-11.49-25.75,4.78-25.75,4.78,0,0,15.93-18.94,1.77-28.1-12.22-7.9-26.95,8.54-34.08,18.69-12.62,17.95-17.49,41.24-21.85,62.7-.48,2.36-.93,4.73-1.31,7.11,0,0,5.31,6.21,5.31,6.21.13.16,8.24-4.41,8.75-4.65,7.61-3.69,15.49-6.78,23.52-9.27,5.56-1.73,11.24-3.04,16.94-4.14,5.49-1.06,11.21-1.54,16.61-3.01,6.84-1.87,15.77-2.53,20.04-8.73,2.2-3.2,2.04-10.67-.6-14.15-3.14-4.12-13.71-3.65-17.84-2.31Z"/>
        <path class="cls-4" d="m272.48,167.24s-31.91,13.4-42.36,50.64"/>
        <path class="cls-4" d="m263.78,191.93s-26,8.88-32.47,27.34"/>
      </g>
      <g>
        <path class="cls-4" d="m301.1,269.75s17.19,13.63,8.49,25.12c-8.7,11.49-25.75-4.78-25.75-4.78,0,0,15.93,18.94,1.77,28.1-12.22,7.9-26.95-8.54-34.08-18.69-12.62-17.95-17.49-41.24-21.85-62.7-.48-2.36-.93-4.73-1.31-7.11,0,0,5.31-6.21,5.31-6.21.13-.16,8.24,4.41,8.75,4.65,7.61,3.69,15.49,6.78,23.52,9.27,5.56,1.73,11.24,3.04,16.94,4.14s11.21,1.54,16.61,3.01c6.84,1.87,15.77,2.53,20.04,8.73,2.2,3.2,2.04,10.67-.6,14.15-3.14,4.12-13.71,3.65-17.84,2.31Z"/>
        <path class="cls-4" d="m272.48,278.29s-31.91-13.4-42.36-50.64"/>
        <path class="cls-4" d="m263.78,253.61s-26-8.88-32.47-27.34"/>
      </g>
      <g>
        <path class="cls-4" d="m152.73,269.06s-17.19,13.63-8.49,25.12c8.7,11.49,25.75-4.78,25.75-4.78,0,0-15.93,18.94-1.77,28.1,12.22,7.9,26.95-8.54,34.08-18.69,12.62-17.95,17.49-41.24,21.85-62.7.48-2.36.93-4.73,1.31-7.11,0,0-5.31-6.21-5.31-6.21-.13-.16-8.24,4.41-8.75,4.65-7.61,3.69-15.49,6.78-23.52,9.27-5.56,1.73-11.24,3.04-16.94,4.14-5.49,1.06-11.21,1.54-16.61,3.01-6.84,1.87-15.77,2.53-20.04,8.73-2.2,3.2-2.04,10.67.6,14.15,3.14,4.12,13.71,3.65,17.84,2.31Z"/>
        <path class="cls-4" d="m181.35,277.6s31.91-13.4,42.36-50.64"/>
        <path class="cls-4" d="m190.05,252.91s26-8.88,32.47-27.34"/>
      </g>
      <ellipse class="cls-3" cx="226.46" cy="222.64" rx="6.17" ry="6.49"/>
      <path class="cls-4" d="m179.11,125.15s-15.32-57.75,18.91-44.09c-2.81-1.13,1.06-13.18,1.72-15.19,5.25-15.89,24.07-18.12,37.61-14.98,13.18,3.06,20.12,15.2,21.74,28.62,0,0,30.66-13.99,15.62,45.64"/>
      <path class="cls-2" d="m225.96,127.12s-21.49,12.11,0,25.46c0,0,19.23-12.42,0-25.46Z"/>
      <ellipse class="cls-6" cx="225.15" cy="139.66" rx="2.33" ry="2.45"/>
      <path class="cls-2" d="m225.67,72.23s-20.84,16.46,0,32.92c0,0,19.88-16.15,0-32.92Z"/>
      <ellipse class="cls-6" cx="226.21" cy="88.9" rx="2.33" ry="2.45"/>
      <path class="cls-1" d="m311.32,174.54s53.08-12.11,48.06,20.23c1.07-2.95,12.52,1.11,14.44,1.81,15.1,5.53,17.21,25.34,14.23,39.59-2.91,13.87-14.44,21.17-27.19,22.88,0,0,3.25,27.96-53.4,12.13"/>
      <path class="cls-2" d="m296.68,222.38s-11.51-22.61-24.19,0c0,0,11.8,20.24,24.19,0Z"/>
      <ellipse class="cls-6" cx="284.77" cy="221.52" rx="2.33" ry="2.45"/>
      <path class="cls-2" d="m348.33,222.28s-15.64-21.93-31.28,0c0,0,15.34,20.92,31.28,0Z"/>
      <ellipse class="cls-6" cx="332.49" cy="222.84" rx="2.33" ry="2.45"/>
      <path class="cls-4" d="m140.27,173.84s-53.08-12.11-48.06,20.23c-1.07-2.95-12.52,1.11-14.44,1.81-15.1,5.53-17.21,25.34-14.23,39.59s14.44,21.17,27.19,22.88c0,0-3.25,27.96,53.4,12.13"/>
      <path class="cls-2" d="m154.92,221.68s11.51-22.61,24.19,0c0,0-11.8,20.24-24.19,0Z"/>
      <ellipse class="cls-6" cx="166.83" cy="220.83" rx="2.33" ry="2.45"/>
      <path class="cls-2" d="m103.26,221.58s15.64-21.93,31.28,0c0,0-15.34,20.92-31.28,0Z"/>
      <ellipse class="cls-6" cx="119.1" cy="222.15" rx="2.33" ry="2.45"/>
      <path class="cls-1" d="m180.2,320.29s-15.32,57.75,18.91,44.09c-2.81,1.13,1.06,13.18,1.72,15.19,5.25,15.89,24.07,18.12,37.61,14.98,13.18-3.06,20.12-15.2,21.74-28.62,0,0,30.66,13.99,15.62-45.64"/>
      <path class="cls-2" d="m226.96,320.29s-21.49-12.11,0-25.46c0,0,19.23,12.42,0,25.46Z"/>
      <ellipse class="cls-6" cx="226.14" cy="307.75" rx="2.33" ry="2.45"/>
      <path class="cls-2" d="m228.58,373.05s-20.84-16.46,0-32.92c0,0,19.88,16.15,0,32.92Z"/>
      <ellipse class="cls-6" cx="229.12" cy="356.39" rx="2.33" ry="2.45"/>
      <path class="cls-6" d="m321.06,305.18c-5.15,1.69-7.39,5.62-9.48,10.3-1.03,2.31-2.11,4.5-3.92,6.3-1.63,1.62-3.53,2.96-5.07,4.68-4.39,4.89-4.8,11.68-4.96,17.95-.18,7.08-.29,14.21-2.79,20.93-2.06,5.55-6.15,10.93-11.99,12.74-3.03.94-6.2,1.22-9.08,2.64-2.22,1.09-4.02,2.83-5.51,4.79-3.26,4.29-4.86,9.56-8.01,13.92-3.62,5.01-9.62,7.15-15.16,9.31-5.77,2.25-11.63,4.95-15.38,10.1-1.96,2.69-2.85,5.83-3.45,9.06-.63,3.39-1.05,6.85-3.19,9.68h3.74c-4.36-9.72-6.48-21.17-16.23-27.16-8.03-4.93-20.15-5.63-23.44-15.92-1.72-5.38-2.22-10.97-6.35-15.21-3.59-3.68-8.47-5.54-12.76-8.22-10.09-6.31-11.99-18.3-12.43-29.25-.19-4.76-.33-9.71-2-14.22-1.82-4.92-5.18-8.63-9.51-11.52-1.13-.76-2.31-1.46-3.3-2.41-1.13-1.08-1.57-2.32-2.09-3.75-.86-2.38-2.16-4.32-4.25-5.8-4.27-3.03-9.52-2.86-14.42-3.95-2.63-.58-5.14-1.61-6.68-3.94-1.41-2.14-2.07-4.69-3.05-7.04-2-4.77-5.41-7.77-10.61-8.5-4.69-.66-10.52.78-14.78-1.76-2.42-1.44-3.69-4.12-5.19-6.4s-3.15-4.05-5.25-5.63c-4.1-3.1-9.19-4.87-12.92-8.45-4.38-4.2-4.82-10.57-6.96-15.95-3.82-9.61-11.34-17.01-20.72-21.26-2.29-1.04-4.65-1.91-7.06-2.63v4.18c5.76-1.35,10.35-5.24,14.7-9.06s8.68-8.13,12.6-12.59c1.89-2.14,3.7-4.35,5.46-6.6s3.38-4.57,5.6-6.3c4.48-3.49,10.58-3.88,15.13-7.31,3.98-2.99,6.06-7.61,9.49-11.11,3.87-3.96,9.43-4.35,14.47-5.85s8.51-4.28,11.88-8.11c1.46-1.66,2.88-3.37,4.53-4.85,2.16-1.93,4.44-2.71,7.24-3.28,5.06-1.04,8.71-3.23,12.08-7.16,2.97-3.48,5.39-7.61,9.02-10.48,3.08-2.44,6.92-3.77,8.84-7.45,2.75-5.29,2.23-11.75,1.65-17.47s-1.71-11.35-.64-16.92c.98-5.09,4.08-8.96,8.12-12.03,3.73-2.84,7.87-5.12,11.28-8.37s5.52-7.48,7.33-11.88c2-4.87,3.59-10.27,7.08-14.32,1.82-2.12,4.22-3.45,6.48-5.03,2.39-1.67,4.73-3.43,6.98-5.29,9.32-7.68,17.03-17.23,21.23-28.64l-4.18-1.15c-1.22,5.84,2.17,10.73,6.06,14.75,4.25,4.38,8.29,8.94,12.48,13.37,3.82,4.04,8.02,7.43,12.4,10.81,3.89,3,7.95,6.29,10.41,10.63,2.7,4.76,2.54,10.67,5.54,15.31,2.54,3.92,6.6,6.17,10.72,8.1s8.95,3.82,11.69,7.81c3.16,4.62,3.4,10.65,3.12,16.05-.35,6.54-1.46,13.05-.35,19.59.43,2.54,1.25,5.11,3.16,6.95,1.8,1.74,4.34,2.48,5.81,4.58,2.71,3.9,3.13,9.04,7.6,11.63,2.27,1.32,4.88,1.6,7.41,2.08,2.82.54,5.43,1.58,7.75,3.3,2.01,1.49,3.69,3.39,4.92,5.56,1.12,1.99,2.09,4.03,3.66,5.72,2.67,2.88,6.43,3.63,10.13,4.32,5.3.99,10.28,3.01,14.62,6.23,2.19,1.62,4.18,3.54,5.89,5.65s3.14,4.76,5.14,6.8c4.02,4.08,9.65,5.62,14.89,7.48,2.9,1.03,5.8,2.22,8.2,4.18,2.58,2.11,4.6,4.83,6.57,7.5,4.1,5.52,7.96,11.34,12.53,16.49,3.94,4.43,8.89,8.16,15.04,8.28l-1.09-4.04c-8.69,4.54-15.57,11.67-21.28,19.53-5.29,7.28-9.22,16.03-16.21,21.92-3.49,2.93-7.45,4.13-11.87,4.91s-8.62,1.5-12.04,4.35c-3.73,3.11-5.03,7.94-8,11.63s-7.16,5.71-11.84,6.9c-2.62.67-5.34,1.32-7.65,2.79-1.93,1.22-3.38,2.88-4.72,4.7s-2.6,4.17-4.5,5.65c-2.32,1.8-5.59,1.46-8.31,2.16s-1.55,4.87,1.15,4.18c2.42-.63,4.99-.54,7.32-1.49,1.99-.81,3.57-2.24,4.9-3.9,2.97-3.7,4.76-7.45,9.59-8.99s9.22-2.22,13.23-5.25,6.07-6.91,8.51-11.08c1.16-1.99,2.47-3.79,4.5-4.96s4.21-1.62,6.41-2.04c4.32-.82,8.57-1.43,12.44-3.67,7.75-4.48,12.36-12.78,17.05-20.08,6.05-9.42,13.42-18.25,23.49-23.51,1.97-1.03.97-3.99-1.09-4.04-5.44-.11-9.56-4.13-12.87-8.04-3.91-4.64-7.35-9.71-10.96-14.58-3.4-4.58-6.89-8.98-12.13-11.54-4.38-2.14-9.22-3.11-13.58-5.28-2.42-1.2-4.48-2.77-6.09-4.95s-3.11-4.55-5-6.59c-3.45-3.73-7.72-6.73-12.36-8.77-2.4-1.05-4.88-1.9-7.44-2.44-2.16-.46-4.39-.69-6.47-1.45-3.68-1.35-4.73-4.96-6.71-7.98-2.81-4.29-7.17-7.61-12.07-9.13-2.29-.71-4.72-.81-7.01-1.49-2.64-.78-3.97-2.54-5.09-4.94-1-2.15-1.74-4.42-3.14-6.36-1.51-2.09-3.63-3.01-5.61-4.54-2.21-1.7-2.59-4.76-2.82-7.36-.29-3.3-.06-6.63.21-9.92.86-10.4,1.73-22.53-7.66-29.52-3.68-2.74-8.07-4.18-12.06-6.36-1.78-.97-3.47-2.08-4.84-3.59-1.9-2.09-2.65-4.77-3.36-7.43-1.53-5.8-3.41-10.58-7.66-14.95-3.76-3.86-8.28-6.79-12.4-10.22-5.1-4.25-9.35-9.38-13.83-14.25-3.77-4.1-11.58-9.58-10.23-16,.58-2.75-3.22-3.76-4.18-1.15-3.7,10.04-10.51,18.47-18.54,25.4-3.95,3.41-8.39,6.03-12.47,9.24-3.65,2.86-5.92,6.94-7.72,11.13-1.89,4.39-3.3,9.08-5.77,13.2s-6.25,6.7-10.05,9.28-7.41,5.11-10.13,8.74c-3.25,4.33-4.41,9.58-4.37,14.92.05,5.76,1.23,11.44,1.44,17.2.17,4.82-.17,10.1-4.53,12.94-3.83,2.5-7.03,4.93-9.9,8.55-2.7,3.41-5.21,7.46-9.05,9.7-2.36,1.37-5.07,1.5-7.65,2.22-2.42.67-4.49,1.88-6.39,3.5-3.53,2.99-5.94,7.21-9.76,9.88-4.29,3-9.82,3.12-14.61,4.92s-7.92,5.22-10.9,9.35c-1.6,2.22-3.23,4.53-5.52,6.1-2.46,1.68-5.33,2.5-8.08,3.55s-5.37,2.31-7.61,4.27-4.11,4.66-6.03,7.08c-4.19,5.27-8.76,10.24-13.67,14.85s-9.8,9.56-16.22,11.06c-2.15.5-1.97,3.58,0,4.18,9.75,2.93,18.52,8.74,23.37,17.91,2.72,5.16,3.3,11.1,6,16.24,2.5,4.75,6.98,7.51,11.5,10.08,2.16,1.23,4.37,2.44,6.26,4.06,2.23,1.91,3.55,4.36,5.17,6.75,2.93,4.33,6.73,6.37,11.91,6.78,4.46.35,10.5-.95,14.08,2.43s3.61,9.48,7.08,13.24c3.73,4.05,9.33,4.24,14.38,5.09,2.28.38,4.71.95,6.62,2.33,2.44,1.76,2.5,4.59,3.98,6.97,2.71,4.35,8.21,5.9,11.24,10.06,2.86,3.93,3.57,8.78,3.85,13.52.63,10.74.87,21.56,7.84,30.46,3.36,4.29,7.89,6.7,12.56,9.29,1.95,1.08,3.92,2.21,5.57,3.73,2.22,2.05,3.39,4.57,4.19,7.44,1.63,5.88,2.69,11.5,7.72,15.51,4.18,3.33,9.37,4.87,14.23,6.9,5.54,2.32,9.76,5.51,12.67,10.87s4.62,11.62,7.18,17.32c.74,1.66,2.88,1.14,3.74,0,3.65-4.8,2.72-11.03,5.16-16.28s7.95-8.04,13.01-10.07c5.38-2.15,10.99-4,15.46-7.83,4.1-3.52,6.17-8.51,8.64-13.18,1.17-2.21,2.43-4.42,4.27-6.15,2.2-2.07,5.02-2.66,7.88-3.3,5.78-1.29,10.36-4.21,13.88-9,3.75-5.11,5.44-11.35,6.22-17.56.87-6.98-.06-14.23,1.54-21.1.75-3.21,2.28-5.47,4.7-7.63,1.94-1.73,3.92-3.34,5.41-5.51,2.97-4.35,3.61-10.94,9.24-12.79,2.64-.86,1.51-5.05-1.15-4.18Z"/>
      <g>
        <g>
          <path class="cls-6" d="m4.22,225.26c1.25-1.87,3.01-3.27,4.46-4.98,1.84-2.16,2.91-4.64,3.72-7.34,1.83-6.11,1.75-12.25.73-18.49-.81-4.91-2.15-11.39,1.51-15.55,2.75-3.12,7.23-4.08,10.76-6.02,1.94-1.07,3.69-2.45,4.97-4.28,1.5-2.13,1.79-4.76,3.03-6.99s3.74-3.41,5.93-4.5c2.46-1.23,5.03-2.23,7.58-3.27,4.65-1.89,10.23-3.73,13.24-8.01,2.53-3.6,3.07-8.36,5.93-11.74,1.71-2.02,4.08-3.38,6.49-4.4,2.54-1.08,5.39-2.13,8.18-2.16s5.14,1.4,7.53,2.73c2.63,1.47,5.28,2.55,8.29,2.93,3.01.37,6.03.05,9.01-.43,2.78-.44,5.59-1.32,8.39-1.52.26-.02,1.41-.1,1.57.13.31.45-1.74,2.05-2.13,2.38-2.2,1.88-4.45,3.7-7.02,5.05-4.93,2.57-10.56,3.52-15.08,6.89-4.9,3.65-8.6,8.87-12.51,13.51-3.68,4.36-7.25,9.02-11.75,12.58-2.09,1.65-4.42,2.95-6.95,3.79-2.72.91-5.51,1.6-8.02,3.03-8.89,5.07-12.77,15.3-18.85,23-6.35,8.05-14.77,14.6-24.29,18.46-2.41.98-4.88,1.78-7.39,2.44-2.7.7-1.55,4.88,1.15,4.18,10.63-2.76,20.42-8.43,28.27-16.1,3.89-3.8,7.16-8.11,10.11-12.66,2.79-4.31,5.41-8.85,9.12-12.46,1.65-1.61,3.54-3,5.66-3.92,2.83-1.23,5.9-1.77,8.7-3.1,5.15-2.44,9.21-6.69,12.88-10.94,4.2-4.87,8.14-10,12.51-14.72,2-2.15,4.15-4.01,6.79-5.35s5.38-2.14,8.07-3.2c2.84-1.13,5.46-2.5,7.9-4.35,1.23-.93,2.43-1.91,3.61-2.92s2.29-1.93,2.99-3.26c1.43-2.71.04-5.8-2.89-6.57-2.63-.7-5.57.25-8.15.75-2.99.58-5.99,1.15-9.05,1.14s-5.72-.84-8.37-2.3-5.07-2.95-8-3.37c-3.17-.46-6.32.31-9.3,1.36-5.21,1.84-10.16,4.57-12.76,9.67-1.95,3.81-2.77,8.95-6.68,11.33-4.9,2.98-10.46,4.64-15.64,7.04-2.51,1.17-5.2,2.48-7.15,4.5-2.05,2.13-2.57,4.81-3.68,7.43-1.75,4.12-6.45,5.4-10.17,7.14-4.64,2.18-8.12,5.56-9.12,10.77-1.2,6.28,1.03,12.31,1.26,18.55.12,3.15-.21,6.28-.99,9.34-.68,2.64-1.54,5.2-3.41,7.24-1.62,1.77-3.35,3.35-4.7,5.36-1.55,2.32,2.2,4.49,3.74,2.19h0Z"/>
          <path class="cls-6" d="m88.87,137.77c-4.46.65-9.05,1.46-12.77,4.19-3.01,2.21-5.26,5.18-7.28,8.28s-3.69,6.13-6.05,8.81c-1.19,1.35-2.5,2.55-4.05,3.47-2,1.18-4.2,1.94-6.33,2.83-15.89,6.67-22.52,23.64-30.97,37.34-4.69,7.6-10.39,14.98-18.74,18.72-1.07.48-1.32,2.03-.78,2.96.64,1.1,1.89,1.26,2.96.78,15.39-6.89,21.89-24.03,30.23-37.42,4.14-6.64,9.1-13.18,16.08-17.03,3.91-2.15,8.32-3.14,11.87-5.94,2.87-2.26,5.01-5.32,6.98-8.36,2.13-3.3,4.08-6.79,6.93-9.54,3.57-3.43,8.36-4.22,13.07-4.91,1.16-.17,1.79-1.64,1.51-2.66-.34-1.24-1.5-1.68-2.66-1.51h0Z"/>
        </g>
        <g>
          <path class="cls-6" d="m.61,226.25c1.39,2.18,3.25,3.87,4.9,5.83,1.84,2.19,2.65,5,3.29,7.74.73,3.13,1.03,6.33.91,9.54-.13,3.37-.82,6.67-1.26,10.01-.76,5.72-.63,12.12,3.46,16.65,3.17,3.5,7.87,4.62,11.78,6.99,1.79,1.08,3.21,2.49,4.01,4.46,1.11,2.76,1.63,5.57,3.71,7.83,1.92,2.09,4.63,3.47,7.15,4.7,2.68,1.31,5.45,2.41,8.18,3.59s5.49,2.45,7.97,4.13c1.71,1.16,2.69,3.17,3.47,5.02.96,2.27,1.72,4.62,2.83,6.83,1.22,2.42,2.99,4.4,5.15,6.02s4.86,2.84,7.49,3.81c3.08,1.14,6.3,1.92,9.59,1.38,3.01-.49,5.57-2.28,8.17-3.75s5.33-2.2,8.36-2.16,6.21.71,9.28,1.34c2.56.52,5.47,1.46,8.02.46,2.92-1.15,3.67-4.48,2.06-7.05-.78-1.24-1.91-2.19-2.99-3.15-1.24-1.1-2.5-2.17-3.82-3.18-2.52-1.92-5.25-3.3-8.18-4.48-2.71-1.08-5.49-2-8.02-3.46-5.32-3.07-8.95-8.71-12.72-13.4s-7.5-9.82-12.02-13.96c-2.13-1.94-4.48-3.72-7.09-4.95-2.78-1.31-5.87-1.85-8.62-3.21-4.48-2.22-7.62-6.27-10.3-10.36-2.99-4.57-5.59-9.39-8.91-13.74-6.76-8.84-15.64-16.05-25.91-20.42-2.51-1.07-5.08-1.98-7.71-2.69s-3.84,3.44-1.15,4.18c10.14,2.77,19.28,8.43,26.57,15.98,3.72,3.85,6.76,8.16,9.55,12.72s5.33,8.96,8.85,12.79c1.64,1.77,3.51,3.38,5.59,4.62,2.62,1.56,5.57,2.26,8.4,3.29,5.1,1.85,9.01,5.87,12.46,9.91,4.07,4.77,7.88,9.77,11.83,14.64,1.85,2.28,3.78,4.53,6.09,6.35s4.89,3.1,7.62,4.21,5.5,2,8.05,3.43,4.72,3.31,6.87,5.24c.43.38,2.25,1.69,2.12,2.41-.1.55-1.15.41-1.59.38-2.8-.21-5.62-1.13-8.39-1.6-3.08-.52-6.18-.83-9.3-.4s-5.64,1.62-8.24,3.15c-2.37,1.4-4.67,2.83-7.52,2.74s-5.7-1.22-8.22-2.4c-2.34-1.09-4.61-2.48-6.23-4.52-1.37-1.73-2.15-3.87-2.94-5.9-.83-2.14-1.63-4.35-2.88-6.28-1.45-2.23-3.44-3.67-5.74-4.95-4.99-2.78-10.5-4.49-15.53-7.19-2.31-1.24-4.7-2.56-5.81-5.07-1.05-2.36-1.42-4.94-2.95-7.08-2.69-3.76-7-5.2-10.96-7.21-1.83-.93-3.66-2.02-4.89-3.71-1.49-2.06-2-4.68-2.08-7.17-.11-3.13.46-6.21.93-9.29.5-3.24.86-6.48.69-9.76-.29-5.82-1.52-12.39-5.34-16.98-1.43-1.72-3.12-3.18-4.33-5.08-1.49-2.34-5.24-.17-3.74,2.19h0Z"/>
          <path class="cls-6" d="m90.15,311.53c-4.14-.64-8.59-1.29-11.9-4.09-2.76-2.34-4.67-5.45-6.53-8.51-1.96-3.23-3.88-6.54-6.44-9.34-3-3.29-6.78-4.87-10.77-6.62-7.68-3.37-13.11-9.71-17.54-16.65-4.63-7.26-8.2-15.13-12.67-22.48-4.79-7.86-10.79-15.61-19.32-19.61-1.06-.5-2.34-.3-2.96.78-.55.94-.29,2.46.78,2.96,7.47,3.5,12.75,10.04,17.04,16.89,4.61,7.35,8.19,15.27,12.76,22.64,4.37,7.05,9.77,13.96,17.19,17.99,3.8,2.06,8.19,3.06,11.39,6.11,2.64,2.51,4.48,5.7,6.35,8.79,2.15,3.56,4.36,7.28,7.53,10.03,3.97,3.44,8.87,4.53,13.93,5.31,1.15.18,2.33-.29,2.66-1.51.28-1.03-.35-2.48-1.51-2.66h0Z"/>
        </g>
      </g>
      <g>
        <g>
          <path class="cls-6" d="m457.47,222.94c-1.41-2.11-3.26-3.72-4.92-5.6-1.84-2.08-2.65-4.79-3.3-7.43-.71-2.91-1-5.9-.88-8.9.12-3.35.87-6.62,1.31-9.93.73-5.49.44-11.69-3.74-15.83-3.28-3.25-7.87-4.26-11.74-6.55-1.71-1.01-3.07-2.31-3.86-4.16-1.17-2.75-1.7-5.56-3.96-7.7-2-1.9-4.58-3.17-7.06-4.31-2.66-1.23-5.4-2.28-8.11-3.4s-5.27-2.25-7.68-3.77c-1.79-1.13-2.79-2.97-3.64-4.85-.96-2.12-1.7-4.34-2.77-6.41-1.26-2.42-3.09-4.38-5.31-5.95s-4.95-2.72-7.6-3.64c-3.02-1.05-6.17-1.75-9.37-1.24-2.95.46-5.5,2.14-8.07,3.53s-5.26,2.11-8.23,2.1-6.06-.6-9.05-1.18c-2.57-.5-5.6-1.49-8.2-.63-2.88.96-3.98,4.02-2.52,6.66.66,1.19,1.7,2.08,2.72,2.94,1.29,1.1,2.6,2.18,3.96,3.2,2.5,1.87,5.21,3.24,8.11,4.36,2.63,1.02,5.35,1.85,7.86,3.15,5.49,2.83,9.21,8.24,13.11,12.86s7.56,9.44,12.08,13.4c2.17,1.9,4.54,3.62,7.18,4.82s5.63,1.76,8.33,2.93c4.59,1.99,7.89,6.01,10.65,10.04,2.99,4.36,5.62,8.94,8.91,13.1,6.86,8.66,15.98,15.43,26.2,19.58,2.41.98,4.88,1.78,7.39,2.44,2.7.7,3.85-3.47,1.15-4.18-10.06-2.61-19.26-7.96-26.64-15.27-3.7-3.67-6.75-7.77-9.56-12.14s-5.36-8.59-8.88-12.2c-1.69-1.74-3.63-3.31-5.76-4.47-2.5-1.36-5.25-2.02-7.92-2.93-5.22-1.76-9.23-5.62-12.82-9.65-4.07-4.57-7.89-9.35-11.87-14-1.92-2.24-3.93-4.39-6.31-6.16s-4.94-2.86-7.61-3.88-5.22-1.81-7.66-3.11c-2.64-1.4-4.93-3.31-7.18-5.25-.39-.34-2.06-1.65-1.79-2.07.18-.29,1.56-.15,1.89-.12,2.86.31,5.68,1.13,8.53,1.56,3.04.46,6.07.71,9.14.28s5.52-1.61,8.08-3.05c2.42-1.36,4.74-2.65,7.61-2.51,2.69.13,5.46,1.16,7.91,2.23s4.76,2.42,6.44,4.48c1.28,1.57,2.04,3.52,2.79,5.38.86,2.12,1.68,4.33,3,6.21,1.47,2.1,3.4,3.42,5.64,4.61,4.95,2.63,10.36,4.24,15.35,6.76,2.21,1.12,4.63,2.31,5.84,4.58s1.53,4.93,3.12,7.07c2.7,3.62,6.94,4.97,10.85,6.84,1.8.86,3.63,1.86,4.9,3.44,1.53,1.89,2.08,4.43,2.17,6.81.11,2.95-.43,5.85-.9,8.74-.51,3.12-.88,6.24-.72,9.41.27,5.55,1.52,11.85,5.21,16.18,1.45,1.7,3.21,3.1,4.46,4.98,1.54,2.31,5.29.14,3.74-2.19h0Z"/>
          <path class="cls-6" d="m367.93,141.8c4.15.61,8.58,1.23,11.96,3.92,2.75,2.2,4.68,5.23,6.55,8.17,1.97,3.1,3.91,6.29,6.49,8.93,3.13,3.22,7.04,4.66,11.09,6.38,15.32,6.51,21.4,23.97,29.73,37.03,4.86,7.62,10.92,15,19.35,18.77,1.07.48,2.33.31,2.96-.78.54-.92.3-2.48-.78-2.96-15.27-6.83-21.24-24.43-29.73-37.53-4.37-6.74-9.71-13.26-16.91-17.1-3.79-2.03-8.28-2.93-11.57-5.83-2.66-2.35-4.55-5.39-6.43-8.36-2.18-3.44-4.41-7.05-7.57-9.68-4.03-3.36-8.93-4.4-13.99-5.14-1.16-.17-2.33.29-2.66,1.51-.28,1.02.35,2.49,1.51,2.66h0Z"/>
        </g>
        <g>
          <path class="cls-6" d="m453.61,223.93c-1.27,2-3.06,3.51-4.54,5.34-1.8,2.22-2.84,4.75-3.62,7.49-1.82,6.35-1.79,12.75-.78,19.23.81,5.18,2.18,11.77-1.27,16.35-2.56,3.4-7.24,4.48-10.79,6.48-1.94,1.1-3.68,2.49-4.98,4.31-1.61,2.26-1.9,5.01-3.13,7.44s-3.59,3.62-5.82,4.81c-2.55,1.36-5.23,2.46-7.88,3.59-4.75,2.02-10.4,4.03-13.3,8.59-2.38,3.75-2.95,8.54-5.74,12.05-1.7,2.15-4.12,3.58-6.59,4.69s-5.33,2.2-8.09,2.24-5.25-1.55-7.65-2.95c-2.57-1.51-5.2-2.61-8.17-2.98s-6.18-.04-9.23.48c-1.43.25-2.85.54-4.27.83s-2.81.71-4.22.74c-.42,0-1.18.1-1.27-.39-.14-.76,1.86-2.18,2.28-2.56,2.2-1.97,4.46-3.89,7.08-5.3,5.18-2.78,10.98-3.9,15.63-7.7,2.23-1.82,4.09-4.03,5.9-6.26,2.11-2.6,4.19-5.22,6.29-7.83,3.56-4.43,7.02-9.09,11.41-12.75,2.05-1.71,4.36-3.08,6.88-3.95,2.71-.94,5.49-1.67,7.98-3.14,9.03-5.36,12.92-16.09,18.92-24.18,6.29-8.47,14.89-15.39,24.61-19.51,2.28-.97,4.64-1.76,7.03-2.41,2.69-.73,1.55-4.91-1.15-4.18-10.71,2.92-20.47,8.88-28.21,16.81-3.9,3.99-7.18,8.49-10.11,13.23-2.78,4.5-5.37,9.25-9.07,13.08-1.68,1.74-3.57,3.22-5.77,4.24-2.8,1.3-5.87,1.86-8.66,3.23-5.13,2.53-9.14,6.9-12.73,11.25-4.19,5.08-8.12,10.41-12.45,15.38-1.95,2.24-4.06,4.27-6.67,5.72s-5.35,2.31-8.05,3.41c-2.87,1.17-5.5,2.56-7.96,4.45-1.2.92-2.35,1.9-3.48,2.9s-2.34,2-3.16,3.29c-1.67,2.67-.77,6.13,2.33,7.16,2.62.87,5.61-.13,8.2-.66,3.06-.63,6.13-1.26,9.27-1.25s5.66.86,8.27,2.37c2.47,1.42,4.95,3.09,7.82,3.55,3.35.54,6.64-.28,9.77-1.45,5.24-1.96,10.08-4.86,12.6-10.06,1.04-2.16,1.78-4.44,2.73-6.64.83-1.91,1.82-3.85,3.6-5.02,5-3.31,10.82-5.07,16.17-7.7,2.57-1.27,5.33-2.7,7.23-4.91s2.38-5.08,3.53-7.75c1.78-4.12,6.45-5.47,10.15-7.31,2.02-1,4.02-2.23,5.55-3.92,1.93-2.13,3.08-4.83,3.53-7.65,1.05-6.58-1.18-12.92-1.34-19.47-.08-3.21.26-6.41,1.03-9.53.66-2.65,1.47-5.32,3.29-7.42,1.64-1.9,3.43-3.58,4.79-5.71,1.5-2.36-2.25-4.53-3.74-2.19h0Z"/>
          <path class="cls-6" d="m368.96,315.57c4.48-.69,9.04-1.55,12.73-4.35,3.04-2.3,5.27-5.41,7.28-8.61s3.65-6.4,6-9.22c1.14-1.38,2.42-2.66,3.93-3.63,1.98-1.27,4.19-2.09,6.34-3.02,16.32-7.03,22.84-25.07,31.24-39.32,4.61-7.83,10.23-15.62,18.68-19.59,1.06-.5,1.33-2.02.78-2.96-.63-1.08-1.9-1.28-2.96-.78-7.56,3.55-13.15,10.08-17.64,16.95s-8.28,15.05-12.68,22.43c-4.15,6.96-9.14,13.92-16.34,17.96-3.9,2.19-8.25,3.27-11.74,6.19-2.86,2.4-4.96,5.63-6.89,8.79-2.09,3.42-4.03,7.05-6.89,9.9-3.52,3.5-8.24,4.36-12.98,5.09-1.16.18-1.8,1.63-1.51,2.66.34,1.24,1.5,1.69,2.66,1.51h0Z"/>
        </g>
      </g>
    </g>
  </g>
</svg>