<?xml version="1.0" standalone="no"?>
<svg xmlns:xlink="http://www.w3.org/1999/xlink" id="wave" style="transform:rotate(180deg); transition: 0.3s" viewBox="0 0 1440 100" version="1.1" xmlns="http://www.w3.org/2000/svg"><defs><linearGradient id="sw-gradient-0" x1="0" x2="0" y1="1" y2="0"><stop stop-color="rgba(49, 111, 232, 1)" offset="0%"/><stop stop-color="rgba(49, 111, 232, 1)" offset="100%"/></linearGradient></defs><path style="transform:translate(0, 0px); opacity:1" fill="url(#sw-gradient-0)" d="M0,40L48,45C96,50,192,60,288,68.3C384,77,480,83,576,83.3C672,83,768,77,864,63.3C960,50,1056,30,1152,18.3C1248,7,1344,3,1440,8.3C1536,13,1632,27,1728,30C1824,33,1920,27,2016,25C2112,23,2208,27,2304,30C2400,33,2496,37,2592,45C2688,53,2784,67,2880,61.7C2976,57,3072,33,3168,35C3264,37,3360,63,3456,70C3552,77,3648,63,3744,55C3840,47,3936,43,4032,35C4128,27,4224,13,4320,11.7C4416,10,4512,20,4608,21.7C4704,23,4800,17,4896,13.3C4992,10,5088,10,5184,8.3C5280,7,5376,3,5472,15C5568,27,5664,53,5760,56.7C5856,60,5952,40,6048,30C6144,20,6240,20,6336,31.7C6432,43,6528,67,6624,65C6720,63,6816,37,6864,23.3L6912,10L6912,100L6864,100C6816,100,6720,100,6624,100C6528,100,6432,100,6336,100C6240,100,6144,100,6048,100C5952,100,5856,100,5760,100C5664,100,5568,100,5472,100C5376,100,5280,100,5184,100C5088,100,4992,100,4896,100C4800,100,4704,100,4608,100C4512,100,4416,100,4320,100C4224,100,4128,100,4032,100C3936,100,3840,100,3744,100C3648,100,3552,100,3456,100C3360,100,3264,100,3168,100C3072,100,2976,100,2880,100C2784,100,2688,100,2592,100C2496,100,2400,100,2304,100C2208,100,2112,100,2016,100C1920,100,1824,100,1728,100C1632,100,1536,100,1440,100C1344,100,1248,100,1152,100C1056,100,960,100,864,100C768,100,672,100,576,100C480,100,384,100,288,100C192,100,96,100,48,100L0,100Z"/></svg>