<svg id="visual" viewBox="0 0 960 160" width="960" height="160" xmlns="http://www.w3.org/2000/svg" xmlns:xlink="http://www.w3.org/1999/xlink" version="1.1"><path d="M0 95L17.8 93.5C35.7 92 71.3 89 106.8 89C142.3 89 177.7 92 213.2 92.3C248.7 92.7 284.3 90.3 320 88.7C355.7 87 391.3 86 426.8 87C462.3 88 497.7 91 533.2 91C568.7 91 604.3 88 640 85.8C675.7 83.7 711.3 82.3 746.8 82.8C782.3 83.3 817.7 85.7 853.2 87.3C888.7 89 924.3 90 942.2 90.5L960 91L960 161L942.2 161C924.3 161 888.7 161 853.2 161C817.7 161 782.3 161 746.8 161C711.3 161 675.7 161 640 161C604.3 161 568.7 161 533.2 161C497.7 161 462.3 161 426.8 161C391.3 161 355.7 161 320 161C284.3 161 248.7 161 213.2 161C177.7 161 142.3 161 106.8 161C71.3 161 35.7 161 17.8 161L0 161Z" fill="#7072f6"></path><path d="M0 116L17.8 114.3C35.7 112.7 71.3 109.3 106.8 107.8C142.3 106.3 177.7 106.7 213.2 107.2C248.7 107.7 284.3 108.3 320 107.7C355.7 107 391.3 105 426.8 104.3C462.3 103.7 497.7 104.3 533.2 105.7C568.7 107 604.3 109 640 109.3C675.7 109.7 711.3 108.3 746.8 107.8C782.3 107.3 817.7 107.7 853.2 109.2C888.7 110.7 924.3 113.3 942.2 114.7L960 116L960 161L942.2 161C924.3 161 888.7 161 853.2 161C817.7 161 782.3 161 746.8 161C711.3 161 675.7 161 640 161C604.3 161 568.7 161 533.2 161C497.7 161 462.3 161 426.8 161C391.3 161 355.7 161 320 161C284.3 161 248.7 161 213.2 161C177.7 161 142.3 161 106.8 161C71.3 161 35.7 161 17.8 161L0 161Z" fill="#bcb3f8"></path><path d="M0 127L17.8 127.8C35.7 128.7 71.3 130.3 106.8 130.3C142.3 130.3 177.7 128.7 213.2 127.8C248.7 127 284.3 127 320 127.3C355.7 127.7 391.3 128.3 426.8 129.7C462.3 131 497.7 133 533.2 133.8C568.7 134.7 604.3 134.3 640 134.3C675.7 134.3 711.3 134.7 746.8 133.8C782.3 133 817.7 131 853.2 129.5C888.7 128 924.3 127 942.2 126.5L960 126L960 161L942.2 161C924.3 161 888.7 161 853.2 161C817.7 161 782.3 161 746.8 161C711.3 161 675.7 161 640 161C604.3 161 568.7 161 533.2 161C497.7 161 462.3 161 426.8 161C391.3 161 355.7 161 320 161C284.3 161 248.7 161 213.2 161C177.7 161 142.3 161 106.8 161C71.3 161 35.7 161 17.8 161L0 161Z" fill="#f8f8f8"></path></svg>