<?xml version="1.0" standalone="no"?>
<svg xmlns:xlink="http://www.w3.org/1999/xlink" id="wave" style="transform:rotate(0deg); transition: 0.3s" viewBox="0 0 1440 200" version="1.1" xmlns="http://www.w3.org/2000/svg"><defs><linearGradient id="sw-gradient-0" x1="0" x2="0" y1="1" y2="0"><stop stop-color="rgba(241, 245, 249, 1)" offset="0%"/><stop stop-color="rgba(241, 245, 249, 1)" offset="100%"/></linearGradient></defs><path style="transform:translate(0, 0px); opacity:1" fill="url(#sw-gradient-0)" d="M0,40L60,60C120,80,240,120,360,140C480,160,600,160,720,143.3C840,127,960,93,1080,73.3C1200,53,1320,47,1440,56.7C1560,67,1680,93,1800,110C1920,127,2040,133,2160,126.7C2280,120,2400,100,2520,106.7C2640,113,2760,147,2880,140C3000,133,3120,87,3240,83.3C3360,80,3480,120,3600,136.7C3720,153,3840,147,3960,126.7C4080,107,4200,73,4320,50C4440,27,4560,13,4680,20C4800,27,4920,53,5040,60C5160,67,5280,53,5400,53.3C5520,53,5640,67,5760,80C5880,93,6000,107,6120,110C6240,113,6360,107,6480,93.3C6600,80,6720,60,6840,50C6960,40,7080,40,7200,43.3C7320,47,7440,53,7560,76.7C7680,100,7800,140,7920,153.3C8040,167,8160,153,8280,130C8400,107,8520,73,8580,56.7L8640,40L8640,200L8580,200C8520,200,8400,200,8280,200C8160,200,8040,200,7920,200C7800,200,7680,200,7560,200C7440,200,7320,200,7200,200C7080,200,6960,200,6840,200C6720,200,6600,200,6480,200C6360,200,6240,200,6120,200C6000,200,5880,200,5760,200C5640,200,5520,200,5400,200C5280,200,5160,200,5040,200C4920,200,4800,200,4680,200C4560,200,4440,200,4320,200C4200,200,4080,200,3960,200C3840,200,3720,200,3600,200C3480,200,3360,200,3240,200C3120,200,3000,200,2880,200C2760,200,2640,200,2520,200C2400,200,2280,200,2160,200C2040,200,1920,200,1800,200C1680,200,1560,200,1440,200C1320,200,1200,200,1080,200C960,200,840,200,720,200C600,200,480,200,360,200C240,200,120,200,60,200L0,200Z"/></svg>